<svg xmlns="http://www.w3.org/2000/svg" viewBox="0 0 900 620">
<defs><linearGradient id="s" x1="0" y1="0" x2="1" y2="1"><stop offset="0" stop-color="#eafbf0"/><stop offset="1" stop-color="#c9eed5"/></linearGradient></defs>
<rect width="900" height="620" fill="url(#s)"/>
<g transform="translate(330 110)">
<rect x="0" y="-30" width="240" height="30" rx="14" fill="#486c24"/>
<path d="M10 0h220l-18 360a26 26 0 0 1-26 24H54a26 26 0 0 1-26-24L10 0Z" fill="#5bb02e"/>
<path d="M60 20v340M120 20v340M180 20l-6 340" stroke="#3f8f22" stroke-width="8" opacity=".5" stroke-linecap="round"/>
<circle cx="85" cy="150" r="14" fill="#1f3a12"/><circle cx="150" cy="150" r="14" fill="#1f3a12"/>
<path d="M78 195c16 22 56 22 72 0" stroke="#1f3a12" stroke-width="12" fill="none" stroke-linecap="round"/>
</g>
<circle cx="120" cy="110" r="22" fill="#fff" opacity=".7"/><circle cx="760" cy="90" r="16" fill="#fff" opacity=".7"/>
<text x="450" y="560" font-family="sans-serif" font-size="30" fill="#486c24" text-anchor="middle" font-weight="700">After</text>
</svg>
