<svg xmlns="http://www.w3.org/2000/svg" viewBox="0 0 720 900">
<defs><linearGradient id="g" x1="0" y1="0" x2="1" y2="1">
<stop offset="0" stop-color="#eaf4dd"/><stop offset="1" stop-color="#cfe8b0"/></linearGradient></defs>
<rect width="720" height="900" fill="url(#g)"/>
<circle cx="120" cy="140" r="40" fill="#fff" opacity=".6"/>
<circle cx="600" cy="120" r="26" fill="#fff" opacity=".5"/>
<circle cx="560" cy="200" r="16" fill="#fff" opacity=".5"/>
<g transform="translate(250 330)">
<rect x="-10" y="-40" width="240" height="34" rx="16" fill="#486c24"/>
<rect x="92" y="-66" width="40" height="30" rx="10" fill="#486c24"/>
<path d="M0 0h220l-20 380a30 30 0 0 1-30 28H50a30 30 0 0 1-30-28L0 0Z" fill="#5bb02e"/>
<path d="M55 30v340M110 30v340M165 30l-8 340" stroke="#3f8f22" stroke-width="10" stroke-linecap="round" opacity=".5"/>
<circle cx="78" cy="150" r="16" fill="#1f3a12"/><circle cx="142" cy="150" r="16" fill="#1f3a12"/>
<path d="M70 200c18 26 62 26 80 0" stroke="#1f3a12" stroke-width="14" fill="none" stroke-linecap="round"/>
</g>
<text x="360" y="840" font-family="sans-serif" font-size="30" fill="#486c24" text-anchor="middle" font-weight="700">Squeaky Clean Garbage Bin</text>
</svg>
